<?xml version="1.0" ?><svg fill="none" height="1024" viewBox="0 0 1024 1024" width="1024" xmlns="http://www.w3.org/2000/svg"><rect fill="black" height="690" rx="100" width="690" x="167" y="167"/><rect fill="url(#paint0_linear_37_1449)" fill-opacity="0.7" height="690" rx="100" width="690" x="167" y="167"/><g filter="url(#filter0_dii_37_1449)"><path d="M384.675 436.088C390.88 428.943 400.819 424.17 409.508 423C410.758 432.516 407.039 442.031 402.069 448.006C395.865 455.119 387.16 459.893 377.237 459.893C374.752 451.563 378.487 443.217 384.675 436.088ZM438.06 556.22C430.606 565.767 420.698 578.87 409.508 578.87C398.35 578.87 395.865 571.71 382.206 572.911C367.313 572.911 364.844 580.04 353.67 578.87C341.246 578.87 332.557 568.138 326.352 557.437C307.74 530.075 305.255 496.739 317.679 478.909C326.352 466.991 338.777 459.877 351.185 459.877C363.594 459.877 372.298 466.991 382.206 466.991C392.146 466.991 398.35 459.877 413.243 459.877C424.401 459.877 435.591 465.821 444.264 475.352C416.962 489.61 421.901 526.487 449.218 537.22C444.28 545.55 441.779 549.106 438.06 556.22ZM535.515 423V451.688H569.834V469.799H535.515V536.549C535.515 551.54 539.484 560.26 554.018 560.26C560.613 560.26 564.567 560.26 567.208 559.012L568.536 576.499C564.567 577.732 556.644 578.995 547.392 578.995C536.828 578.995 527.592 575.251 520.997 568.996C514.402 561.508 511.745 551.54 511.745 536.549V469.799H491.929V451.688H511.745V429.24L535.515 423ZM614.951 454.199L641.362 524.069C645.331 535.332 649.301 545.3 651.926 556.516H653.239C655.896 546.548 659.85 536.564 663.819 524.069L688.933 454.199H714L662.522 578.995H640.065L589.884 454.199H614.951Z" fill="white"/></g><defs><filter color-interpolation-filters="sRGB" filterUnits="userSpaceOnUse" height="274.469" id="filter0_dii_37_1449" width="522.469" x="250.766" y="396.075"><feFlood flood-opacity="0" result="BackgroundImageFix"/><feColorMatrix in="SourceAlpha" result="hardAlpha" type="matrix" values="0 0 0 0 0 0 0 0 0 0 0 0 0 0 0 0 0 0 127 0"/><feOffset dy="32.3097"/><feGaussianBlur stdDeviation="29.6172"/><feColorMatrix type="matrix" values="0 0 0 0 0 0 0 0 0 0.0980392 0 0 0 0 0.345098 0 0 0 0.25 0"/><feBlend in2="BackgroundImageFix" mode="normal" result="effect1_dropShadow_37_1449"/><feBlend in="SourceGraphic" in2="effect1_dropShadow_37_1449" mode="normal" result="shape"/><feColorMatrix in="SourceAlpha" result="hardAlpha" type="matrix" values="0 0 0 0 0 0 0 0 0 0 0 0 0 0 0 0 0 0 127 0"/><feOffset dy="-21.5398"/><feGaussianBlur stdDeviation="13.4624"/><feComposite in2="hardAlpha" k2="-1" k3="1" operator="arithmetic"/><feColorMatrix type="matrix" values="0 0 0 0 0.0716667 0 0 0 0 0.498639 0 0 0 0 0.716667 0 0 0 0.29 0"/><feBlend in2="shape" mode="normal" result="effect2_innerShadow_37_1449"/><feColorMatrix in="SourceAlpha" result="hardAlpha" type="matrix" values="0 0 0 0 0 0 0 0 0 0 0 0 0 0 0 0 0 0 127 0"/><feOffset dy="-8.07741"/><feGaussianBlur stdDeviation="5.38494"/><feComposite in2="hardAlpha" k2="-1" k3="1" operator="arithmetic"/><feColorMatrix type="matrix" values="0 0 0 0 1 0 0 0 0 1 0 0 0 0 1 0 0 0 0.75 0"/><feBlend in2="effect2_innerShadow_37_1449" mode="normal" result="effect3_innerShadow_37_1449"/></filter><linearGradient gradientUnits="userSpaceOnUse" id="paint0_linear_37_1449" x1="512" x2="512" y1="167" y2="857"><stop/><stop offset="1" stop-color="white" stop-opacity="0"/></linearGradient></defs></svg>